<mxfile host="app.diagrams.net" modified="2024-06-09T21:51:44.139Z" agent="Mozilla/5.0 (Windows NT 10.0; Win64; x64) AppleWebKit/537.36 (KHTML, like Gecko) Chrome/125.0.0.0 Safari/537.36 Edg/125.0.0.0" etag="UgPH-MyVj4kOD-klxu_g" version="24.5.2" type="github">
  <diagram id="C5RBs43oDa-KdzZeNtuy" name="Page-1">
    <mxGraphModel dx="2006" dy="669" grid="1" gridSize="10" guides="1" tooltips="1" connect="1" arrows="1" fold="1" page="1" pageScale="1" pageWidth="827" pageHeight="1169" math="0" shadow="0">
      <root>
        <mxCell id="WIyWlLk6GJQsqaUBKTNV-0" />
        <mxCell id="WIyWlLk6GJQsqaUBKTNV-1" parent="WIyWlLk6GJQsqaUBKTNV-0" />
        <mxCell id="pisz0PyIYx20GaxpdS_j-4" value="&lt;font style=&quot;font-size: 15px;&quot;&gt;Presentaion&lt;/font&gt;:" style="text;html=1;align=center;verticalAlign=middle;resizable=0;points=[];autosize=1;strokeColor=none;fillColor=none;fontSize=15;" vertex="1" parent="WIyWlLk6GJQsqaUBKTNV-1">
          <mxGeometry x="65" y="20" width="110" height="30" as="geometry" />
        </mxCell>
        <mxCell id="pisz0PyIYx20GaxpdS_j-6" value="gui" style="swimlane;fontStyle=0;childLayout=stackLayout;horizontal=1;startSize=26;fillColor=none;horizontalStack=0;resizeParent=1;resizeParentMax=0;resizeLast=0;collapsible=1;marginBottom=0;whiteSpace=wrap;html=1;fontSize=15;" vertex="1" parent="WIyWlLk6GJQsqaUBKTNV-1">
          <mxGeometry x="30" y="60" width="138" height="104" as="geometry" />
        </mxCell>
        <mxCell id="pisz0PyIYx20GaxpdS_j-7" value="-scanner Scanner" style="text;strokeColor=none;fillColor=none;align=left;verticalAlign=top;spacingLeft=4;spacingRight=4;overflow=hidden;rotatable=0;points=[[0,0.5],[1,0.5]];portConstraint=eastwest;whiteSpace=wrap;html=1;fontSize=15;" vertex="1" parent="pisz0PyIYx20GaxpdS_j-6">
          <mxGeometry y="26" width="138" height="26" as="geometry" />
        </mxCell>
        <mxCell id="pisz0PyIYx20GaxpdS_j-8" value="-controller Controller" style="text;strokeColor=none;fillColor=none;align=left;verticalAlign=top;spacingLeft=4;spacingRight=4;overflow=hidden;rotatable=0;points=[[0,0.5],[1,0.5]];portConstraint=eastwest;whiteSpace=wrap;html=1;fontSize=15;" vertex="1" parent="pisz0PyIYx20GaxpdS_j-6">
          <mxGeometry y="52" width="138" height="26" as="geometry" />
        </mxCell>
        <mxCell id="pisz0PyIYx20GaxpdS_j-9" value="- run boolean" style="text;strokeColor=none;fillColor=none;align=left;verticalAlign=top;spacingLeft=4;spacingRight=4;overflow=hidden;rotatable=0;points=[[0,0.5],[1,0.5]];portConstraint=eastwest;whiteSpace=wrap;html=1;fontSize=15;" vertex="1" parent="pisz0PyIYx20GaxpdS_j-6">
          <mxGeometry y="78" width="138" height="26" as="geometry" />
        </mxCell>
        <mxCell id="pisz0PyIYx20GaxpdS_j-14" value="Use" style="endArrow=open;endSize=12;dashed=1;html=1;rounded=0;entryX=1;entryY=0.5;entryDx=0;entryDy=0;exitX=0;exitY=0.5;exitDx=0;exitDy=0;fontSize=15;" edge="1" parent="WIyWlLk6GJQsqaUBKTNV-1" source="pisz0PyIYx20GaxpdS_j-88" target="pisz0PyIYx20GaxpdS_j-8">
          <mxGeometry width="160" relative="1" as="geometry">
            <mxPoint x="220" y="56" as="sourcePoint" />
            <mxPoint x="470" y="180" as="targetPoint" />
          </mxGeometry>
        </mxCell>
        <mxCell id="pisz0PyIYx20GaxpdS_j-18" value="&lt;font style=&quot;font-size: 15px;&quot;&gt;Domain:&lt;/font&gt;" style="text;html=1;align=center;verticalAlign=middle;resizable=0;points=[];autosize=1;strokeColor=none;fillColor=none;fontSize=15;" vertex="1" parent="WIyWlLk6GJQsqaUBKTNV-1">
          <mxGeometry x="860" y="37" width="80" height="30" as="geometry" />
        </mxCell>
        <mxCell id="pisz0PyIYx20GaxpdS_j-19" value="Item" style="swimlane;fontStyle=0;childLayout=stackLayout;horizontal=1;startSize=26;fillColor=none;horizontalStack=0;resizeParent=1;resizeParentMax=0;resizeLast=0;collapsible=1;marginBottom=0;whiteSpace=wrap;html=1;fontSize=15;" vertex="1" parent="WIyWlLk6GJQsqaUBKTNV-1">
          <mxGeometry x="800" y="293" width="140" height="156" as="geometry" />
        </mxCell>
        <mxCell id="pisz0PyIYx20GaxpdS_j-20" value="-type ItemType" style="text;strokeColor=none;fillColor=none;align=left;verticalAlign=top;spacingLeft=4;spacingRight=4;overflow=hidden;rotatable=0;points=[[0,0.5],[1,0.5]];portConstraint=eastwest;whiteSpace=wrap;html=1;fontSize=15;" vertex="1" parent="pisz0PyIYx20GaxpdS_j-19">
          <mxGeometry y="26" width="140" height="26" as="geometry" />
        </mxCell>
        <mxCell id="pisz0PyIYx20GaxpdS_j-21" value="-id int&amp;nbsp;" style="text;strokeColor=none;fillColor=none;align=left;verticalAlign=top;spacingLeft=4;spacingRight=4;overflow=hidden;rotatable=0;points=[[0,0.5],[1,0.5]];portConstraint=eastwest;whiteSpace=wrap;html=1;fontSize=15;" vertex="1" parent="pisz0PyIYx20GaxpdS_j-19">
          <mxGeometry y="52" width="140" height="26" as="geometry" />
        </mxCell>
        <mxCell id="pisz0PyIYx20GaxpdS_j-22" value="-itemStatus ItemStatus" style="text;strokeColor=none;fillColor=none;align=left;verticalAlign=top;spacingLeft=4;spacingRight=4;overflow=hidden;rotatable=0;points=[[0,0.5],[1,0.5]];portConstraint=eastwest;whiteSpace=wrap;html=1;fontSize=15;" vertex="1" parent="pisz0PyIYx20GaxpdS_j-19">
          <mxGeometry y="78" width="140" height="26" as="geometry" />
        </mxCell>
        <mxCell id="pisz0PyIYx20GaxpdS_j-89" style="edgeStyle=orthogonalEdgeStyle;rounded=0;orthogonalLoop=1;jettySize=auto;html=1;fontSize=15;" edge="1" parent="pisz0PyIYx20GaxpdS_j-19" source="pisz0PyIYx20GaxpdS_j-39">
          <mxGeometry relative="1" as="geometry">
            <mxPoint x="250" y="6" as="targetPoint" />
          </mxGeometry>
        </mxCell>
        <mxCell id="pisz0PyIYx20GaxpdS_j-39" value="-locaton ItemLocation" style="text;strokeColor=none;fillColor=none;align=left;verticalAlign=top;spacingLeft=4;spacingRight=4;overflow=hidden;rotatable=0;points=[[0,0.5],[1,0.5]];portConstraint=eastwest;whiteSpace=wrap;html=1;fontSize=15;" vertex="1" parent="pisz0PyIYx20GaxpdS_j-19">
          <mxGeometry y="104" width="140" height="26" as="geometry" />
        </mxCell>
        <mxCell id="pisz0PyIYx20GaxpdS_j-40" value="-expirationDate Date" style="text;strokeColor=none;fillColor=none;align=left;verticalAlign=top;spacingLeft=4;spacingRight=4;overflow=hidden;rotatable=0;points=[[0,0.5],[1,0.5]];portConstraint=eastwest;whiteSpace=wrap;html=1;fontSize=15;" vertex="1" parent="pisz0PyIYx20GaxpdS_j-19">
          <mxGeometry y="130" width="140" height="26" as="geometry" />
        </mxCell>
        <mxCell id="pisz0PyIYx20GaxpdS_j-23" value="ItemLocation&amp;nbsp;" style="swimlane;fontStyle=0;childLayout=stackLayout;horizontal=1;startSize=26;fillColor=none;horizontalStack=0;resizeParent=1;resizeParentMax=0;resizeLast=0;collapsible=1;marginBottom=0;whiteSpace=wrap;html=1;fontSize=15;" vertex="1" parent="WIyWlLk6GJQsqaUBKTNV-1">
          <mxGeometry x="990" y="189" width="140" height="104" as="geometry" />
        </mxCell>
        <mxCell id="pisz0PyIYx20GaxpdS_j-24" value="-primaryLocation String" style="text;strokeColor=none;fillColor=none;align=left;verticalAlign=top;spacingLeft=4;spacingRight=4;overflow=hidden;rotatable=0;points=[[0,0.5],[1,0.5]];portConstraint=eastwest;whiteSpace=wrap;html=1;fontSize=15;" vertex="1" parent="pisz0PyIYx20GaxpdS_j-23">
          <mxGeometry y="26" width="140" height="26" as="geometry" />
        </mxCell>
        <mxCell id="pisz0PyIYx20GaxpdS_j-25" value="-section String" style="text;strokeColor=none;fillColor=none;align=left;verticalAlign=top;spacingLeft=4;spacingRight=4;overflow=hidden;rotatable=0;points=[[0,0.5],[1,0.5]];portConstraint=eastwest;whiteSpace=wrap;html=1;fontSize=15;" vertex="1" parent="pisz0PyIYx20GaxpdS_j-23">
          <mxGeometry y="52" width="140" height="26" as="geometry" />
        </mxCell>
        <mxCell id="pisz0PyIYx20GaxpdS_j-26" value="-shelfNum int" style="text;strokeColor=none;fillColor=none;align=left;verticalAlign=top;spacingLeft=4;spacingRight=4;overflow=hidden;rotatable=0;points=[[0,0.5],[1,0.5]];portConstraint=eastwest;whiteSpace=wrap;html=1;fontSize=15;" vertex="1" parent="pisz0PyIYx20GaxpdS_j-23">
          <mxGeometry y="78" width="140" height="26" as="geometry" />
        </mxCell>
        <mxCell id="pisz0PyIYx20GaxpdS_j-100" style="edgeStyle=orthogonalEdgeStyle;rounded=0;orthogonalLoop=1;jettySize=auto;html=1;entryX=0;entryY=0.5;entryDx=0;entryDy=0;fontSize=15;" edge="1" parent="WIyWlLk6GJQsqaUBKTNV-1" source="pisz0PyIYx20GaxpdS_j-47">
          <mxGeometry relative="1" as="geometry">
            <mxPoint x="469.9999999999999" y="784" as="sourcePoint" />
            <mxPoint x="809.9999999999998" y="659" as="targetPoint" />
            <Array as="points">
              <mxPoint x="550" y="659" />
            </Array>
          </mxGeometry>
        </mxCell>
        <mxCell id="pisz0PyIYx20GaxpdS_j-27" value="ItemStock&amp;nbsp;" style="swimlane;fontStyle=0;childLayout=stackLayout;horizontal=1;startSize=26;fillColor=none;horizontalStack=0;resizeParent=1;resizeParentMax=0;resizeLast=0;collapsible=1;marginBottom=0;whiteSpace=wrap;html=1;fontSize=15;" vertex="1" parent="WIyWlLk6GJQsqaUBKTNV-1">
          <mxGeometry x="520" y="369" width="220" height="220" as="geometry" />
        </mxCell>
        <mxCell id="pisz0PyIYx20GaxpdS_j-28" value="-itemType ItemType&amp;nbsp;" style="text;strokeColor=none;fillColor=none;align=left;verticalAlign=top;spacingLeft=4;spacingRight=4;overflow=hidden;rotatable=0;points=[[0,0.5],[1,0.5]];portConstraint=eastwest;whiteSpace=wrap;html=1;fontSize=15;" vertex="1" parent="pisz0PyIYx20GaxpdS_j-27">
          <mxGeometry y="26" width="220" height="26" as="geometry" />
        </mxCell>
        <mxCell id="pisz0PyIYx20GaxpdS_j-42" value="-availableItems Set&amp;lt;Item&amp;gt;" style="text;strokeColor=none;fillColor=none;align=left;verticalAlign=top;spacingLeft=4;spacingRight=4;overflow=hidden;rotatable=0;points=[[0,0.5],[1,0.5]];portConstraint=eastwest;whiteSpace=wrap;html=1;fontSize=15;" vertex="1" parent="pisz0PyIYx20GaxpdS_j-27">
          <mxGeometry y="52" width="220" height="28" as="geometry" />
        </mxCell>
        <mxCell id="pisz0PyIYx20GaxpdS_j-43" value="-defectiveItems Set&amp;lt;Item&amp;gt;" style="text;strokeColor=none;fillColor=none;align=left;verticalAlign=top;spacingLeft=4;spacingRight=4;overflow=hidden;rotatable=0;points=[[0,0.5],[1,0.5]];portConstraint=eastwest;whiteSpace=wrap;html=1;fontSize=15;" vertex="1" parent="pisz0PyIYx20GaxpdS_j-27">
          <mxGeometry y="80" width="220" height="28" as="geometry" />
        </mxCell>
        <mxCell id="pisz0PyIYx20GaxpdS_j-44" value="-expiredItems Set&amp;lt;Item&amp;gt;" style="text;strokeColor=none;fillColor=none;align=left;verticalAlign=top;spacingLeft=4;spacingRight=4;overflow=hidden;rotatable=0;points=[[0,0.5],[1,0.5]];portConstraint=eastwest;whiteSpace=wrap;html=1;fontSize=15;" vertex="1" parent="pisz0PyIYx20GaxpdS_j-27">
          <mxGeometry y="108" width="220" height="28" as="geometry" />
        </mxCell>
        <mxCell id="pisz0PyIYx20GaxpdS_j-45" value="-soldItems Set&amp;lt;Item&amp;gt;" style="text;strokeColor=none;fillColor=none;align=left;verticalAlign=top;spacingLeft=4;spacingRight=4;overflow=hidden;rotatable=0;points=[[0,0.5],[1,0.5]];portConstraint=eastwest;whiteSpace=wrap;html=1;fontSize=15;" vertex="1" parent="pisz0PyIYx20GaxpdS_j-27">
          <mxGeometry y="136" width="220" height="28" as="geometry" />
        </mxCell>
        <mxCell id="pisz0PyIYx20GaxpdS_j-46" value="-soldItems Set&amp;lt;Item&amp;gt;" style="text;strokeColor=none;fillColor=none;align=left;verticalAlign=top;spacingLeft=4;spacingRight=4;overflow=hidden;rotatable=0;points=[[0,0.5],[1,0.5]];portConstraint=eastwest;whiteSpace=wrap;html=1;fontSize=15;" vertex="1" parent="pisz0PyIYx20GaxpdS_j-27">
          <mxGeometry y="164" width="220" height="28" as="geometry" />
        </mxCell>
        <mxCell id="pisz0PyIYx20GaxpdS_j-47" value="-itemIdToItemMap Map&amp;lt;Integer, Item&amp;gt;&amp;nbsp;" style="text;strokeColor=none;fillColor=none;align=left;verticalAlign=top;spacingLeft=4;spacingRight=4;overflow=hidden;rotatable=0;points=[[0,0.5],[1,0.5]];portConstraint=eastwest;whiteSpace=wrap;html=1;fontSize=15;" vertex="1" parent="pisz0PyIYx20GaxpdS_j-27">
          <mxGeometry y="192" width="220" height="28" as="geometry" />
        </mxCell>
        <mxCell id="pisz0PyIYx20GaxpdS_j-35" value="ItemType&amp;nbsp;" style="swimlane;fontStyle=0;childLayout=stackLayout;horizontal=1;startSize=26;fillColor=none;horizontalStack=0;resizeParent=1;resizeParentMax=0;resizeLast=0;collapsible=1;marginBottom=0;whiteSpace=wrap;html=1;fontSize=15;" vertex="1" parent="WIyWlLk6GJQsqaUBKTNV-1">
          <mxGeometry x="810" y="579" width="140" height="234" as="geometry" />
        </mxCell>
        <mxCell id="pisz0PyIYx20GaxpdS_j-36" value="-&amp;nbsp;serialNumber int" style="text;strokeColor=none;fillColor=none;align=left;verticalAlign=top;spacingLeft=4;spacingRight=4;overflow=hidden;rotatable=0;points=[[0,0.5],[1,0.5]];portConstraint=eastwest;whiteSpace=wrap;html=1;fontSize=15;" vertex="1" parent="pisz0PyIYx20GaxpdS_j-35">
          <mxGeometry y="26" width="140" height="26" as="geometry" />
        </mxCell>
        <mxCell id="pisz0PyIYx20GaxpdS_j-37" value="-category String" style="text;strokeColor=none;fillColor=none;align=left;verticalAlign=top;spacingLeft=4;spacingRight=4;overflow=hidden;rotatable=0;points=[[0,0.5],[1,0.5]];portConstraint=eastwest;whiteSpace=wrap;html=1;fontSize=15;" vertex="1" parent="pisz0PyIYx20GaxpdS_j-35">
          <mxGeometry y="52" width="140" height="26" as="geometry" />
        </mxCell>
        <mxCell id="pisz0PyIYx20GaxpdS_j-48" value="-subCategory String" style="text;strokeColor=none;fillColor=none;align=left;verticalAlign=top;spacingLeft=4;spacingRight=4;overflow=hidden;rotatable=0;points=[[0,0.5],[1,0.5]];portConstraint=eastwest;whiteSpace=wrap;html=1;fontSize=15;" vertex="1" parent="pisz0PyIYx20GaxpdS_j-35">
          <mxGeometry y="78" width="140" height="26" as="geometry" />
        </mxCell>
        <mxCell id="pisz0PyIYx20GaxpdS_j-49" value="-sizeCategory String" style="text;strokeColor=none;fillColor=none;align=left;verticalAlign=top;spacingLeft=4;spacingRight=4;overflow=hidden;rotatable=0;points=[[0,0.5],[1,0.5]];portConstraint=eastwest;whiteSpace=wrap;html=1;fontSize=15;" vertex="1" parent="pisz0PyIYx20GaxpdS_j-35">
          <mxGeometry y="104" width="140" height="26" as="geometry" />
        </mxCell>
        <mxCell id="pisz0PyIYx20GaxpdS_j-50" value="-manufacturer String" style="text;strokeColor=none;fillColor=none;align=left;verticalAlign=top;spacingLeft=4;spacingRight=4;overflow=hidden;rotatable=0;points=[[0,0.5],[1,0.5]];portConstraint=eastwest;whiteSpace=wrap;html=1;fontSize=15;" vertex="1" parent="pisz0PyIYx20GaxpdS_j-35">
          <mxGeometry y="130" width="140" height="26" as="geometry" />
        </mxCell>
        <mxCell id="pisz0PyIYx20GaxpdS_j-51" value="-costPrice double" style="text;strokeColor=none;fillColor=none;align=left;verticalAlign=top;spacingLeft=4;spacingRight=4;overflow=hidden;rotatable=0;points=[[0,0.5],[1,0.5]];portConstraint=eastwest;whiteSpace=wrap;html=1;fontSize=15;" vertex="1" parent="pisz0PyIYx20GaxpdS_j-35">
          <mxGeometry y="156" width="140" height="26" as="geometry" />
        </mxCell>
        <mxCell id="pisz0PyIYx20GaxpdS_j-53" value="-sellingPrice double" style="text;strokeColor=none;fillColor=none;align=left;verticalAlign=top;spacingLeft=4;spacingRight=4;overflow=hidden;rotatable=0;points=[[0,0.5],[1,0.5]];portConstraint=eastwest;whiteSpace=wrap;html=1;fontSize=15;" vertex="1" parent="pisz0PyIYx20GaxpdS_j-35">
          <mxGeometry y="182" width="140" height="26" as="geometry" />
        </mxCell>
        <mxCell id="pisz0PyIYx20GaxpdS_j-54" value="-minQuantity int" style="text;strokeColor=none;fillColor=none;align=left;verticalAlign=top;spacingLeft=4;spacingRight=4;overflow=hidden;rotatable=0;points=[[0,0.5],[1,0.5]];portConstraint=eastwest;whiteSpace=wrap;html=1;fontSize=15;" vertex="1" parent="pisz0PyIYx20GaxpdS_j-35">
          <mxGeometry y="208" width="140" height="26" as="geometry" />
        </mxCell>
        <mxCell id="pisz0PyIYx20GaxpdS_j-41" value="&lt;p style=&quot;margin: 4px 0px 0px; text-align: center; font-size: 15px;&quot;&gt;&lt;i style=&quot;font-size: 15px;&quot;&gt;&amp;lt;&amp;lt;enum&amp;gt;&amp;gt;&lt;/i&gt;&lt;br style=&quot;font-size: 15px;&quot;&gt;&lt;b style=&quot;font-size: 15px;&quot;&gt;ItemStatus&lt;/b&gt;&lt;br style=&quot;font-size: 15px;&quot;&gt;&lt;/p&gt;&lt;hr style=&quot;border-style: solid; font-size: 15px;&quot;&gt;&lt;p style=&quot;margin: 0px 0px 0px 4px; font-size: 15px;&quot;&gt;&lt;br style=&quot;font-size: 15px;&quot;&gt;&lt;/p&gt;" style="verticalAlign=top;align=left;overflow=fill;html=1;whiteSpace=wrap;fontSize=15;" vertex="1" parent="WIyWlLk6GJQsqaUBKTNV-1">
          <mxGeometry x="730" y="164" width="100" height="65" as="geometry" />
        </mxCell>
        <mxCell id="pisz0PyIYx20GaxpdS_j-55" value="DefectiveReport&amp;nbsp;" style="swimlane;fontStyle=0;childLayout=stackLayout;horizontal=1;startSize=26;fillColor=none;horizontalStack=0;resizeParent=1;resizeParentMax=0;resizeLast=0;collapsible=1;marginBottom=0;whiteSpace=wrap;html=1;fontSize=15;" vertex="1" parent="WIyWlLk6GJQsqaUBKTNV-1">
          <mxGeometry x="148" y="931" width="220" height="52" as="geometry" />
        </mxCell>
        <mxCell id="pisz0PyIYx20GaxpdS_j-63" value="StockReport" style="swimlane;fontStyle=0;childLayout=stackLayout;horizontal=1;startSize=26;fillColor=none;horizontalStack=0;resizeParent=1;resizeParentMax=0;resizeLast=0;collapsible=1;marginBottom=0;whiteSpace=wrap;html=1;fontSize=15;" vertex="1" parent="WIyWlLk6GJQsqaUBKTNV-1">
          <mxGeometry x="148" y="822" width="220" height="52" as="geometry" />
        </mxCell>
        <mxCell id="pisz0PyIYx20GaxpdS_j-64" value="InStockReport" style="swimlane;fontStyle=0;childLayout=stackLayout;horizontal=1;startSize=26;fillColor=none;horizontalStack=0;resizeParent=1;resizeParentMax=0;resizeLast=0;collapsible=1;marginBottom=0;whiteSpace=wrap;html=1;fontSize=15;" vertex="1" parent="WIyWlLk6GJQsqaUBKTNV-1">
          <mxGeometry x="141" y="650" width="220" height="52" as="geometry" />
        </mxCell>
        <mxCell id="pisz0PyIYx20GaxpdS_j-65" value="MissingReport&amp;nbsp;" style="swimlane;fontStyle=0;childLayout=stackLayout;horizontal=1;startSize=26;fillColor=none;horizontalStack=0;resizeParent=1;resizeParentMax=0;resizeLast=0;collapsible=1;marginBottom=0;whiteSpace=wrap;html=1;fontSize=15;" vertex="1" parent="WIyWlLk6GJQsqaUBKTNV-1">
          <mxGeometry x="148" y="741" width="220" height="52" as="geometry" />
        </mxCell>
        <mxCell id="pisz0PyIYx20GaxpdS_j-116" style="edgeStyle=orthogonalEdgeStyle;rounded=0;orthogonalLoop=1;jettySize=auto;html=1;fontSize=15;" edge="1" parent="WIyWlLk6GJQsqaUBKTNV-1" source="pisz0PyIYx20GaxpdS_j-67" target="pisz0PyIYx20GaxpdS_j-76">
          <mxGeometry relative="1" as="geometry" />
        </mxCell>
        <mxCell id="pisz0PyIYx20GaxpdS_j-67" value="Controller&amp;nbsp;" style="swimlane;fontStyle=0;childLayout=stackLayout;horizontal=1;startSize=26;fillColor=none;horizontalStack=0;resizeParent=1;resizeParentMax=0;resizeLast=0;collapsible=1;marginBottom=0;whiteSpace=wrap;html=1;fontSize=15;" vertex="1" parent="WIyWlLk6GJQsqaUBKTNV-1">
          <mxGeometry x="20" y="250" width="320" height="90" as="geometry" />
        </mxCell>
        <mxCell id="pisz0PyIYx20GaxpdS_j-68" value="-inventoryManager InventoryManager" style="text;strokeColor=none;fillColor=none;align=left;verticalAlign=top;spacingLeft=4;spacingRight=4;overflow=hidden;rotatable=0;points=[[0,0.5],[1,0.5]];portConstraint=eastwest;whiteSpace=wrap;html=1;fontSize=15;" vertex="1" parent="pisz0PyIYx20GaxpdS_j-67">
          <mxGeometry y="26" width="320" height="26" as="geometry" />
        </mxCell>
        <mxCell id="pisz0PyIYx20GaxpdS_j-119" value="" style="endArrow=open;endSize=12;dashed=1;html=1;rounded=0;entryX=0;entryY=0.5;entryDx=0;entryDy=0;fontSize=15;" edge="1" parent="pisz0PyIYx20GaxpdS_j-67" target="pisz0PyIYx20GaxpdS_j-55">
          <mxGeometry width="160" relative="1" as="geometry">
            <mxPoint y="44.40999999999997" as="sourcePoint" />
            <mxPoint x="-270" y="40" as="targetPoint" />
            <Array as="points">
              <mxPoint x="-370" y="60" />
              <mxPoint x="-350" y="730" />
            </Array>
          </mxGeometry>
        </mxCell>
        <mxCell id="pisz0PyIYx20GaxpdS_j-124" value="Use" style="edgeLabel;html=1;align=center;verticalAlign=middle;resizable=0;points=[];fontSize=15;" vertex="1" connectable="0" parent="pisz0PyIYx20GaxpdS_j-119">
          <mxGeometry x="0.6427" y="-3" relative="1" as="geometry">
            <mxPoint as="offset" />
          </mxGeometry>
        </mxCell>
        <mxCell id="pisz0PyIYx20GaxpdS_j-75" value="-passwordAuthenticator PasswordAuthenticator" style="text;strokeColor=none;fillColor=none;align=left;verticalAlign=top;spacingLeft=4;spacingRight=4;overflow=hidden;rotatable=0;points=[[0,0.5],[1,0.5]];portConstraint=eastwest;whiteSpace=wrap;html=1;fontSize=15;" vertex="1" parent="pisz0PyIYx20GaxpdS_j-67">
          <mxGeometry y="52" width="320" height="38" as="geometry" />
        </mxCell>
        <mxCell id="pisz0PyIYx20GaxpdS_j-76" value="InventoryManager" style="swimlane;fontStyle=0;childLayout=stackLayout;horizontal=1;startSize=26;fillColor=none;horizontalStack=0;resizeParent=1;resizeParentMax=0;resizeLast=0;collapsible=1;marginBottom=0;whiteSpace=wrap;html=1;fontSize=15;" vertex="1" parent="WIyWlLk6GJQsqaUBKTNV-1">
          <mxGeometry x="20" y="415" width="320" height="128" as="geometry" />
        </mxCell>
        <mxCell id="pisz0PyIYx20GaxpdS_j-77" value="&amp;nbsp;-stocks Map&amp;lt;ItemType, ItemStock&amp;gt;&amp;nbsp;" style="text;strokeColor=none;fillColor=none;align=left;verticalAlign=top;spacingLeft=4;spacingRight=4;overflow=hidden;rotatable=0;points=[[0,0.5],[1,0.5]];portConstraint=eastwest;whiteSpace=wrap;html=1;fontSize=15;" vertex="1" parent="pisz0PyIYx20GaxpdS_j-76">
          <mxGeometry y="26" width="320" height="26" as="geometry" />
        </mxCell>
        <mxCell id="pisz0PyIYx20GaxpdS_j-78" value="-itemTypes Map&amp;lt;Integer, ItemType&amp;gt;" style="text;strokeColor=none;fillColor=none;align=left;verticalAlign=top;spacingLeft=4;spacingRight=4;overflow=hidden;rotatable=0;points=[[0,0.5],[1,0.5]];portConstraint=eastwest;whiteSpace=wrap;html=1;fontSize=15;" vertex="1" parent="pisz0PyIYx20GaxpdS_j-76">
          <mxGeometry y="52" width="320" height="38" as="geometry" />
        </mxCell>
        <mxCell id="pisz0PyIYx20GaxpdS_j-79" value="- lowStockNotifications Set&amp;lt;ItemType&amp;gt;" style="text;strokeColor=none;fillColor=none;align=left;verticalAlign=top;spacingLeft=4;spacingRight=4;overflow=hidden;rotatable=0;points=[[0,0.5],[1,0.5]];portConstraint=eastwest;whiteSpace=wrap;html=1;fontSize=15;" vertex="1" parent="pisz0PyIYx20GaxpdS_j-76">
          <mxGeometry y="90" width="320" height="38" as="geometry" />
        </mxCell>
        <mxCell id="pisz0PyIYx20GaxpdS_j-84" value="PasswordAuthenticator" style="swimlane;fontStyle=0;childLayout=stackLayout;horizontal=1;startSize=26;fillColor=none;horizontalStack=0;resizeParent=1;resizeParentMax=0;resizeLast=0;collapsible=1;marginBottom=0;whiteSpace=wrap;html=1;fontSize=15;" vertex="1" parent="WIyWlLk6GJQsqaUBKTNV-1">
          <mxGeometry x="335" y="164" width="320" height="52" as="geometry" />
        </mxCell>
        <mxCell id="pisz0PyIYx20GaxpdS_j-85" value="-password String&amp;nbsp;" style="text;strokeColor=none;fillColor=none;align=left;verticalAlign=top;spacingLeft=4;spacingRight=4;overflow=hidden;rotatable=0;points=[[0,0.5],[1,0.5]];portConstraint=eastwest;whiteSpace=wrap;html=1;fontSize=15;" vertex="1" parent="pisz0PyIYx20GaxpdS_j-84">
          <mxGeometry y="26" width="320" height="26" as="geometry" />
        </mxCell>
        <mxCell id="pisz0PyIYx20GaxpdS_j-88" value="Main" style="swimlane;fontStyle=0;childLayout=stackLayout;horizontal=1;startSize=26;fillColor=none;horizontalStack=0;resizeParent=1;resizeParentMax=0;resizeLast=0;collapsible=1;marginBottom=0;whiteSpace=wrap;html=1;fontSize=15;" vertex="1" parent="WIyWlLk6GJQsqaUBKTNV-1">
          <mxGeometry x="286" y="50" width="138" height="52" as="geometry" />
        </mxCell>
        <mxCell id="pisz0PyIYx20GaxpdS_j-90" value="*" style="text;html=1;align=center;verticalAlign=middle;resizable=0;points=[];autosize=1;strokeColor=none;fillColor=none;fontSize=15;" vertex="1" parent="WIyWlLk6GJQsqaUBKTNV-1">
          <mxGeometry x="940" y="409" width="30" height="30" as="geometry" />
        </mxCell>
        <mxCell id="pisz0PyIYx20GaxpdS_j-91" value="1" style="text;html=1;align=center;verticalAlign=middle;resizable=0;points=[];autosize=1;strokeColor=none;fillColor=none;fontSize=15;" vertex="1" parent="WIyWlLk6GJQsqaUBKTNV-1">
          <mxGeometry x="1060" y="293" width="30" height="30" as="geometry" />
        </mxCell>
        <mxCell id="pisz0PyIYx20GaxpdS_j-96" value="" style="endArrow=none;html=1;rounded=0;entryX=0.488;entryY=1.019;entryDx=0;entryDy=0;entryPerimeter=0;exitX=0.417;exitY=0.002;exitDx=0;exitDy=0;exitPerimeter=0;fontSize=15;" edge="1" parent="WIyWlLk6GJQsqaUBKTNV-1" source="pisz0PyIYx20GaxpdS_j-35" target="pisz0PyIYx20GaxpdS_j-40">
          <mxGeometry width="50" height="50" relative="1" as="geometry">
            <mxPoint x="1150" y="599" as="sourcePoint" />
            <mxPoint x="1200" y="549" as="targetPoint" />
          </mxGeometry>
        </mxCell>
        <mxCell id="pisz0PyIYx20GaxpdS_j-97" value="1" style="text;html=1;align=center;verticalAlign=middle;resizable=0;points=[];autosize=1;strokeColor=none;fillColor=none;fontSize=15;" vertex="1" parent="WIyWlLk6GJQsqaUBKTNV-1">
          <mxGeometry x="870" y="549" width="30" height="30" as="geometry" />
        </mxCell>
        <mxCell id="pisz0PyIYx20GaxpdS_j-98" value="0..*" style="text;html=1;align=center;verticalAlign=middle;resizable=0;points=[];autosize=1;strokeColor=none;fillColor=none;fontSize=15;" vertex="1" parent="WIyWlLk6GJQsqaUBKTNV-1">
          <mxGeometry x="865" y="449" width="50" height="30" as="geometry" />
        </mxCell>
        <mxCell id="pisz0PyIYx20GaxpdS_j-101" value="1" style="text;html=1;align=center;verticalAlign=middle;resizable=0;points=[];autosize=1;strokeColor=none;fillColor=none;fontSize=15;" vertex="1" parent="WIyWlLk6GJQsqaUBKTNV-1">
          <mxGeometry x="780" y="629" width="30" height="30" as="geometry" />
        </mxCell>
        <mxCell id="pisz0PyIYx20GaxpdS_j-102" value="1" style="text;html=1;align=center;verticalAlign=middle;resizable=0;points=[];autosize=1;strokeColor=none;fillColor=none;fontSize=15;" vertex="1" parent="WIyWlLk6GJQsqaUBKTNV-1">
          <mxGeometry x="550" y="590" width="30" height="30" as="geometry" />
        </mxCell>
        <mxCell id="pisz0PyIYx20GaxpdS_j-103" style="edgeStyle=orthogonalEdgeStyle;rounded=0;orthogonalLoop=1;jettySize=auto;html=1;entryX=-0.011;entryY=0.687;entryDx=0;entryDy=0;entryPerimeter=0;fontSize=15;" edge="1" parent="WIyWlLk6GJQsqaUBKTNV-1" source="pisz0PyIYx20GaxpdS_j-44" target="pisz0PyIYx20GaxpdS_j-21">
          <mxGeometry relative="1" as="geometry" />
        </mxCell>
        <mxCell id="pisz0PyIYx20GaxpdS_j-104" value="1" style="text;html=1;align=center;verticalAlign=middle;resizable=0;points=[];autosize=1;strokeColor=none;fillColor=none;fontSize=15;" vertex="1" parent="WIyWlLk6GJQsqaUBKTNV-1">
          <mxGeometry x="740" y="489" width="30" height="30" as="geometry" />
        </mxCell>
        <mxCell id="pisz0PyIYx20GaxpdS_j-105" value="*" style="text;html=1;align=center;verticalAlign=middle;resizable=0;points=[];autosize=1;strokeColor=none;fillColor=none;fontSize=15;" vertex="1" parent="WIyWlLk6GJQsqaUBKTNV-1">
          <mxGeometry x="765" y="329" width="30" height="30" as="geometry" />
        </mxCell>
        <mxCell id="pisz0PyIYx20GaxpdS_j-107" style="edgeStyle=orthogonalEdgeStyle;rounded=0;orthogonalLoop=1;jettySize=auto;html=1;entryX=-0.009;entryY=0.06;entryDx=0;entryDy=0;entryPerimeter=0;fontSize=15;" edge="1" parent="WIyWlLk6GJQsqaUBKTNV-1" source="pisz0PyIYx20GaxpdS_j-76" target="pisz0PyIYx20GaxpdS_j-44">
          <mxGeometry relative="1" as="geometry" />
        </mxCell>
        <mxCell id="pisz0PyIYx20GaxpdS_j-108" style="edgeStyle=orthogonalEdgeStyle;rounded=0;orthogonalLoop=1;jettySize=auto;html=1;entryX=0;entryY=0.5;entryDx=0;entryDy=0;fontSize=15;" edge="1" parent="WIyWlLk6GJQsqaUBKTNV-1" source="pisz0PyIYx20GaxpdS_j-79" target="pisz0PyIYx20GaxpdS_j-53">
          <mxGeometry relative="1" as="geometry">
            <Array as="points">
              <mxPoint x="470" y="524" />
              <mxPoint x="470" y="774" />
            </Array>
          </mxGeometry>
        </mxCell>
        <mxCell id="pisz0PyIYx20GaxpdS_j-109" value="*" style="text;html=1;align=center;verticalAlign=middle;resizable=0;points=[];autosize=1;strokeColor=none;fillColor=none;fontSize=15;" vertex="1" parent="WIyWlLk6GJQsqaUBKTNV-1">
          <mxGeometry x="770" y="783" width="30" height="30" as="geometry" />
        </mxCell>
        <mxCell id="pisz0PyIYx20GaxpdS_j-110" value="1" style="text;html=1;align=center;verticalAlign=middle;resizable=0;points=[];autosize=1;strokeColor=none;fillColor=none;fontSize=15;" vertex="1" parent="WIyWlLk6GJQsqaUBKTNV-1">
          <mxGeometry x="340" y="530" width="30" height="30" as="geometry" />
        </mxCell>
        <mxCell id="pisz0PyIYx20GaxpdS_j-111" value="*" style="text;html=1;align=center;verticalAlign=middle;resizable=0;points=[];autosize=1;strokeColor=none;fillColor=none;fontSize=15;" vertex="1" parent="WIyWlLk6GJQsqaUBKTNV-1">
          <mxGeometry x="480" y="439" width="30" height="30" as="geometry" />
        </mxCell>
        <mxCell id="pisz0PyIYx20GaxpdS_j-112" value="1" style="text;html=1;align=center;verticalAlign=middle;resizable=0;points=[];autosize=1;strokeColor=none;fillColor=none;fontSize=15;" vertex="1" parent="WIyWlLk6GJQsqaUBKTNV-1">
          <mxGeometry x="350" y="439" width="30" height="30" as="geometry" />
        </mxCell>
        <mxCell id="pisz0PyIYx20GaxpdS_j-113" style="edgeStyle=orthogonalEdgeStyle;rounded=0;orthogonalLoop=1;jettySize=auto;html=1;entryX=0.485;entryY=0.966;entryDx=0;entryDy=0;entryPerimeter=0;fontSize=15;" edge="1" parent="WIyWlLk6GJQsqaUBKTNV-1" source="pisz0PyIYx20GaxpdS_j-75" target="pisz0PyIYx20GaxpdS_j-85">
          <mxGeometry relative="1" as="geometry">
            <mxPoint x="410" y="300" as="targetPoint" />
          </mxGeometry>
        </mxCell>
        <mxCell id="pisz0PyIYx20GaxpdS_j-114" value="*" style="text;html=1;align=center;verticalAlign=middle;resizable=0;points=[];autosize=1;strokeColor=none;fillColor=none;fontSize=15;" vertex="1" parent="WIyWlLk6GJQsqaUBKTNV-1">
          <mxGeometry x="490" y="216" width="30" height="30" as="geometry" />
        </mxCell>
        <mxCell id="pisz0PyIYx20GaxpdS_j-115" value="1" style="text;html=1;align=center;verticalAlign=middle;resizable=0;points=[];autosize=1;strokeColor=none;fillColor=none;fontSize=15;" vertex="1" parent="WIyWlLk6GJQsqaUBKTNV-1">
          <mxGeometry x="338" y="323" width="30" height="30" as="geometry" />
        </mxCell>
        <mxCell id="pisz0PyIYx20GaxpdS_j-117" value="1" style="text;html=1;align=center;verticalAlign=middle;resizable=0;points=[];autosize=1;strokeColor=none;fillColor=none;fontSize=15;" vertex="1" parent="WIyWlLk6GJQsqaUBKTNV-1">
          <mxGeometry x="190" y="385" width="30" height="30" as="geometry" />
        </mxCell>
        <mxCell id="pisz0PyIYx20GaxpdS_j-118" value="1" style="text;html=1;align=center;verticalAlign=middle;resizable=0;points=[];autosize=1;strokeColor=none;fillColor=none;fontSize=15;" vertex="1" parent="WIyWlLk6GJQsqaUBKTNV-1">
          <mxGeometry x="190" y="340" width="30" height="30" as="geometry" />
        </mxCell>
        <mxCell id="pisz0PyIYx20GaxpdS_j-121" value="Use" style="endArrow=open;endSize=12;dashed=1;html=1;rounded=0;entryX=0;entryY=0.5;entryDx=0;entryDy=0;fontSize=15;" edge="1" parent="WIyWlLk6GJQsqaUBKTNV-1" target="pisz0PyIYx20GaxpdS_j-63">
          <mxGeometry width="160" relative="1" as="geometry">
            <mxPoint x="-340" y="860" as="sourcePoint" />
            <mxPoint x="-180" y="860" as="targetPoint" />
          </mxGeometry>
        </mxCell>
        <mxCell id="pisz0PyIYx20GaxpdS_j-122" value="Use" style="endArrow=open;endSize=12;dashed=1;html=1;rounded=0;entryX=0;entryY=0.5;entryDx=0;entryDy=0;fontSize=15;" edge="1" parent="WIyWlLk6GJQsqaUBKTNV-1">
          <mxGeometry width="160" relative="1" as="geometry">
            <mxPoint x="-340" y="773" as="sourcePoint" />
            <mxPoint x="148" y="761" as="targetPoint" />
          </mxGeometry>
        </mxCell>
        <mxCell id="pisz0PyIYx20GaxpdS_j-123" value="Use" style="endArrow=open;endSize=12;dashed=1;html=1;rounded=0;entryX=0;entryY=0.5;entryDx=0;entryDy=0;fontSize=15;" edge="1" parent="WIyWlLk6GJQsqaUBKTNV-1">
          <mxGeometry width="160" relative="1" as="geometry">
            <mxPoint x="-347" y="682" as="sourcePoint" />
            <mxPoint x="141" y="670" as="targetPoint" />
          </mxGeometry>
        </mxCell>
      </root>
    </mxGraphModel>
  </diagram>
</mxfile>
